<svg id="Layer_1" data-name="Layer 1" xmlns="http://www.w3.org/2000/svg" viewBox="0 0 3608 183"><defs><style>.cls-1{fill:#f4463c;}.cls-2{fill:#f56c42;}.cls-3{fill:#eba149;}</style></defs><title>Artboard 1</title><path class="cls-1" d="M148.57,98c1.18,40.37,32.83,72.73,71.72,72.73S290.83,138.37,292,98Z"/><path class="cls-2" d="M147.76,170.55c-1.18-40.38-33.13-72.73-72.38-72.73S4.18,130.17,3,170.55Z"/><path class="cls-3" d="M435,171c-1.16-40.37-32.47-72.73-70.93-72.73S294.3,130.63,293.14,171Z"/><path class="cls-1" d="M292,92c-1.17-40.37-32.83-72.73-71.72-72.73S149.73,51.63,148.56,92Z"/><path class="cls-2" d="M292.5,19c1.17,40.37,32.62,72.73,71.25,72.73S433.83,59.37,435,19Z"/><path class="cls-3" d="M3,19C4.19,59.37,36.19,91.73,75.5,91.73S146.81,59.37,148,19Z"/><path class="cls-3" d="M580.56,19.38c1.17,40.37,32.6,72.72,71.22,72.72S721.83,59.75,723,19.38Z"/><path class="cls-2" d="M723,170.38C721.84,130,690.3,97.65,651.55,97.65S581.26,130,580.09,170.38Z"/><path class="cls-1" d="M1011.19,96.28c1.19,40.37,33.37,72.73,72.9,72.73s71.72-32.36,72.91-72.73Z"/><path class="cls-1" d="M1157,91c-1.18-40.38-33.15-72.73-72.42-72.73S1013.35,50.58,1012.17,91Z"/><path class="cls-1" d="M436.07,97c1.18,40.37,32.83,72.73,71.71,72.73S578.32,137.37,579.5,97Z"/><path class="cls-1" d="M579.5,91c-1.18-40.37-32.84-72.73-71.72-72.73S437.23,50.63,436.05,91Z"/><path class="cls-1" d="M724,97c1.17,40.37,32.83,72.73,71.71,72.73S866.29,137.37,867.47,97Z"/><path class="cls-1" d="M867.47,91c-1.18-40.37-32.84-72.73-71.72-72.73S725.2,50.63,724,91Z"/><path class="cls-2" d="M868.92,19c1.17,40.37,32.62,72.73,71.25,72.73s70.08-32.36,71.25-72.73Z"/><path class="cls-3" d="M1011.55,171c-1.16-40.37-32.47-72.73-70.93-72.73S870.84,130.63,869.68,171Z"/><path class="cls-3" d="M1156.69,19c1.16,40.37,32.6,72.73,71.21,72.73s70-32.36,71.22-72.73Z"/><path class="cls-2" d="M1299.93,171c-1.17-40.37-32.71-72.73-71.46-72.73S1158.18,130.63,1157,171Z"/><path class="cls-1" d="M1300.32,98c1.17,40.37,32.83,72.73,71.71,72.73s70.54-32.36,71.71-72.73Z"/><path class="cls-1" d="M1443.74,92c-1.17-40.37-32.83-72.73-71.72-72.73S1301.47,51.63,1300.3,92Z"/><path class="cls-2" d="M1443.76,18.29C1444.93,58.67,1476.38,91,1515,91s70.08-32.35,71.25-72.73Z"/><path class="cls-3" d="M1586.94,171c-1.16-40.37-32.47-72.73-70.93-72.73s-69.77,32.36-70.93,72.73Z"/><path class="cls-1" d="M1588.17,97c1.18,40.37,32.83,72.73,71.72,72.73s70.54-32.36,71.71-72.73Z"/><path class="cls-1" d="M1731.6,91c-1.17-40.37-32.83-72.73-71.72-72.73S1589.33,50.63,1588.16,91Z"/><path class="cls-3" d="M1732.5,19c1.16,40.37,32.6,72.73,71.21,72.73s70-32.36,71.22-72.73Z"/><path class="cls-2" d="M1875.67,170.79c-1.17-40.37-32.72-72.72-71.46-72.72s-70.3,32.35-71.46,72.72Z"/><path class="cls-1" d="M1876.45,98c1.17,40.37,32.83,72.73,71.71,72.73s70.54-32.36,71.71-72.73Z"/><path class="cls-1" d="M2019.87,92c-1.17-40.37-32.83-72.73-71.72-72.73S1877.6,51.63,1876.43,92Z"/><path class="cls-2" d="M2020.91,19c1.17,40.37,32.62,72.73,71.25,72.73s70.08-32.36,71.25-72.73Z"/><path class="cls-3" d="M2163.47,171c-1.16-40.37-32.47-72.73-70.93-72.73s-69.78,32.36-70.94,72.73Z"/><path class="cls-1" d="M2164.39,98c1.18,40.37,32.83,72.73,71.72,72.73s70.54-32.36,71.71-72.73Z"/><path class="cls-1" d="M2307.82,92c-1.17-40.37-32.83-72.73-71.72-72.73S2165.55,51.63,2164.38,92Z"/><path class="cls-3" d="M2308.73,19c1.17,40.37,32.6,72.73,71.21,72.73s70-32.36,71.22-72.73Z"/><path class="cls-2" d="M2451.4,171c-1.16-40.37-32.71-72.73-71.46-72.73s-70.29,32.36-71.46,72.73Z"/><path class="cls-1" d="M2452.22,98c1.18,40.37,32.83,72.73,71.72,72.73s70.54-32.36,71.71-72.73Z"/><path class="cls-1" d="M2595.65,92c-1.17-40.37-32.83-72.73-71.72-72.73S2453.38,51.63,2452.21,92Z"/><path class="cls-2" d="M2596.82,19c1.16,40.37,32.62,72.73,71.25,72.73s70.08-32.36,71.25-72.73Z"/><path class="cls-3" d="M2739,170c-1.16-40.37-32.47-72.73-70.93-72.73s-69.77,32.36-70.93,72.73Z"/><path class="cls-1" d="M2740.53,98c1.17,40.37,32.83,72.73,71.71,72.73S2882.78,138.37,2884,98Z"/><path class="cls-1" d="M2884,92c-1.17-40.37-32.83-72.73-71.72-72.73S2741.68,51.63,2740.51,92Z"/><path class="cls-3" d="M2885.26,19c1.16,40.37,32.6,72.73,71.21,72.73s70.05-32.36,71.21-72.73Z"/><path class="cls-2" d="M3027.93,171c-1.17-40.37-32.71-72.73-71.46-72.73S2886.18,130.63,2885,171Z"/><path class="cls-1" d="M3028.77,97c1.17,40.37,32.82,72.73,71.71,72.73S3171,137.37,3172.19,97Z"/><path class="cls-1" d="M3172.19,91c-1.17-40.37-32.83-72.73-71.72-72.73S3029.92,50.63,3028.75,91Z"/><path class="cls-2" d="M3173.22,19c1.17,40.37,32.62,72.73,71.25,72.73s70.08-32.36,71.25-72.73Z"/><path class="cls-3" d="M3315.4,170c-1.16-40.37-32.47-72.73-70.93-72.73s-69.77,32.36-70.93,72.73Z"/><path class="cls-1" d="M3316.77,97c1.17,40.37,32.82,72.73,71.71,72.73S3459,137.37,3460.19,97Z"/><path class="cls-1" d="M3460.19,91c-1.17-40.37-32.83-72.73-71.72-72.73S3317.92,50.63,3316.75,91Z"/><path class="cls-3" d="M3460.26,19c1.16,40.37,32.6,72.73,71.21,72.73s70.05-32.36,71.21-72.73Z"/><path class="cls-2" d="M3603.81,170c-1.17-40.37-32.72-72.73-71.46-72.73s-70.29,32.36-71.46,72.73Z"/></svg>