<svg xmlns="http://www.w3.org/2000/svg" viewBox="0 0 566.9 566.9" width="134" height="96"><style>.st0{fill:#006c3a}.st1{fill:url(#SVGID_1_)}.st2{fill:url(#SVGID_2_)}.st3{fill:url(#SVGID_3_)}.st4{fill:#fff}.st5{fill:url(#SVGID_4_)}.st6{fill:#683b11}.st7{fill:#e11a2c}.st8{stroke:#000;stroke-width:4.252;stroke-linecap:round;stroke-linejoin:round;stroke-miterlimit:3.864}.st9{fill:url(#SVGID_5_)}.st10{fill:url(#SVGID_6_)}.st11{fill:url(#SVGID_7_)}.st12{fill:url(#SVGID_8_)}.st13{fill:url(#SVGID_9_)}.st14{fill:url(#SVGID_10_)}.st15{fill:url(#SVGID_11_)}.st16{fill:url(#SVGID_12_)}.st17{fill:url(#SVGID_13_)}.st18{fill:url(#SVGID_14_)}.st19{fill:url(#SVGID_15_)}.st20{fill:url(#SVGID_16_)}.st21{fill:url(#SVGID_17_)}.st22{fill:url(#SVGID_18_)}</style><path class="st0" d="M283.4 448H284.3c28.2 0 153.1-30.8 254.3-59.3V205.8c-104.3-29.7-228.1-62-255-61.5h-.8c-28.1 0-150.8 32.1-254.4 61.6v183C129.3 417.1 254.7 448 282.7 448h.7z" id="Layer_1"/><g id="Cevron"><linearGradient id="SVGID_1_" gradientUnits="userSpaceOnUse" x1="29.747" y1="141.847" x2="540.528" y2="141.847"><stop offset="0" stop-color="#a05a36"/><stop offset=".15" stop-color="#fabc4e"/><stop offset=".3" stop-color="#ffe495"/><stop offset=".45" stop-color="#fbc878"/><stop offset=".65" stop-color="#a05a36"/><stop offset=".8" stop-color="#fabf75"/><stop offset=".85" stop-color="#f7dc90"/><stop offset=".9" stop-color="#fabf75"/><stop offset="1" stop-color="#a05a36"/></linearGradient><path class="st1" d="M283.5 138.6c28.3-.6 152.3 32 255.1 61.3v-22.3L283.5 83.8 28.3 177.7V200c102.9-29.3 226.8-61.9 255.2-61.4z"/><linearGradient id="SVGID_2_" gradientUnits="userSpaceOnUse" x1="29.169" y1="438.904" x2="538.734" y2="438.904"><stop offset="0" stop-color="#a05a36"/><stop offset=".15" stop-color="#fabc4e"/><stop offset=".3" stop-color="#ffe495"/><stop offset=".45" stop-color="#fbc878"/><stop offset=".65" stop-color="#a05a36"/><stop offset=".8" stop-color="#fabf75"/><stop offset=".85" stop-color="#f7dc90"/><stop offset=".9" stop-color="#fabf75"/><stop offset="1" stop-color="#a05a36"/></linearGradient><path class="st2" d="M283.5 453.7c-27.8.6-152.1-30.1-255.1-59l255.1 88.5 255.1-88.5c-103 28.9-227.3 59.5-255.1 59z"/></g><g id="Crest"><linearGradient id="SVGID_3_" gradientUnits="userSpaceOnUse" x1="29.741" y1="374.128" x2="538.859" y2="374.128"><stop offset="0" stop-color="#a05a36"/><stop offset=".15" stop-color="#fabc4e"/><stop offset=".3" stop-color="#ffe495"/><stop offset=".45" stop-color="#fbc878"/><stop offset=".65" stop-color="#a05a36"/><stop offset=".8" stop-color="#fabf75"/><stop offset=".85" stop-color="#f7dc90"/><stop offset=".9" stop-color="#fabf75"/><stop offset="1" stop-color="#a05a36"/></linearGradient><path class="st3" d="M284.3 388.8c-.2-1.1.4-1.4 1.3-1.4s1.9.4 2.4.8l.1.5v.5c0 .3-.1.5-.5.5h-.3c-.2 0-.5 0-.7.1-.4 0-.7.1-1.1.1-.6 0-1.1-.2-1.2-1.1zm26-6.5c2.5 10.9-5.6 11.8-5.2 19 .2 2.5-4.4 1.6-7.8 8.2-1.7-.7-3.8.6-4.3.9-.6.2 2.6-.2 3.4.9.2.8-.3 1.8-.6 2.3 0 0-2.9.3-5.1-.1 0 0-.2-2.4 2.4-5.2 3.4-1 6.7-7.9 6.9-8.7.7-2 .9-4.8-1.9-6-3.5-2.4-6.2-3.2-8.2-10.3 0 0-1.1 1.5-.5 3.4-5-1.6-12.5-.9-14.7-4.6 2-1.4 2.6-2.9 2-5 0 0-.1-.1-.3.1 0 2.1-2.9 3.6-3.4 4-.7.6-2.6.2-4-.6-2.4-1.3-7.3-3.8-7.5-3.6-.2.1-.9 6.9.1 8.2-1.6.9-2.2 2.2-2.6 3.5 1.1-1.3 2.7-1.7 3.5-1.8.3.3.9 1.1 1.3 1.8 0 0-1.1 2.7-4 3.1-.5.4-2.3-3.4-2-5.3.6-3.3-.8-9.3-.8-10.2s.3-1.6.8-2.1c.9-1 2.6-1.4 3-1.6.4-.2 2.1-.5 2.5-.5.5-.1 4.3-.5 4.4-1.1.1-.3-.3-.6-1.3-.8 0 0 .2-1.5 1.1-3.8 1.1-3.1 2.6-2.7 5.8-6.5 1.1-1.2 6.8-8.4 2.1-12.5l-.3-.3.3.3c1.1 1.2.6 3.8.2 4.7-2 3.2-3.3 2.1-4 5.6-.1.5-.3.8-.7 1.1-.4.3-.9.5-1.3.5-.4-.1-.4-.4-.2-1.5.3-1.2-.3-1.2-.4-1.3-.3-.1-.7.5-.8.7-.1.2-.4 1.4-.6 1.8-.2.3-.8.8-1.5-.1-.4-.6-1.2-1.1-1.6-1.5-.4-.4-.7-.7-.2-2.3.4-1.5 2.3-5.3 2.5-6 .2-.6.1-.8 0-1.4-.1-.6-.3-1.2.5-2.9.3-.8.6-1.2 1.1-2.1.6-1 1.1-2.2 1.3-2.6.4-.6 0-.6-.3-1.9 0-.4 0-.8.1-1.3.5-1.7.7-2.1.7-2.1s1.1.7 1.7 1.6c.6.9.9 1.7.9 1.7s.1 0 .3-.1c2.4-5.4 8.6-2.6 11-2 0 0-1.1.3-1.4.7-.3.4-.5.9-.2.8.3-.1 1.4-.3 2.6-.3 2.9.2 3.4 2.5 3.4 2.5-2.6-1.2-2.4.3-2.4.3 5.7 1.4 5.6 4.9 5.6 4.9-1-1.1-3-1.6-2.9-1 .1.5.6.8 2.4 2 2.5 1.8 1.9 4.1 1.9 4.1-.5-.9-2.1-.7-2.1-.7.1.5.3.8 1.7 2.1 2.9 2.7 1.1 6.1 1.1 6.1-.1-1.3-2.4-3.7-2.4-3.1 0 .7 0 1.7.9 3.2 1.6 2.6.6 5.1.6 5.1-1-1.3-1.7-1.7-1.7-1.7-.2 1.7 3 4.6 2.1 7.6-1-2.3-3.6-5.8-4.2-6.1.1-2 .5-4.8.5-7.5v-1.8c-.1-1-.1-1.8-.3-2.6 0-.3-.1-.5-.1-.8-.3-1.6-.7-3.3-1.6-5-.2-.4-.4-.8-.6-1.1-.9-1.5-2.1-3-3.7-4.2-2.4-1.8-5.9-3-6.9-1.9-.1.2-.1.1-.1.2.1 0 .2 0 .3.1 1.5.4 2.8.8 4 1.5 1.6 1 2.6 2.2 4 4 3.8 5 2.7 14.9 2.5 16.8-.2 1.1-.2 2.8.2 3.7.7 1.5 2 1.1 5.2 6.2.8 1.3 2.5 3.6 4 3.9 3.4.6 9.7 1.9 12.9 5.9 0 0 2.3.4 3.8-.9 1.1-1 1.6-2.4-.3-4.8-1.5-1.8-3.5-2.8-5.5-4.5-1.8-1.6-3-2.5-4.7-5.2-1.6-2.5-2.1-4.4-1.4-7.2 0 0 .4 1.7 1.8 2.2 0 0-2.3-4.5 1.4-8.2 0 0 .1 5 1.4 6.2 0 0-.1-2.4 1.5-3.1 0 0-1.4 3.1 1.6 8.4-2.7-1-4.1-4.2-4.1-4.2-.5 2 .8 5.3 5.6 7.7.7.4 2.3 1.5 3.2 2.3 1.1 1 2.3 2.4 2.7 4.4.1.6 0 1.3 0 2 0 0 .9-.4.8-2.6-.1-2.4-1.1-3.7-3.1-5.6-1.8-1.6-4.1-2.8-2.6-6.7 0 0 1.3 2.9 2.9 4.2 11.9 9.6 3.2 19.7-4.1 18zM267 354.6c-.2-.4-.8-.1-.9 0-.1.1-.2.5-.4 1-.2.6.3 1.2.7 1.2.2 0 .4-.5.5-.7.2-.3.2-1.2.1-1.5zm3.7-9.3c-.1-.5-.3-1.3-.5-1.4 0 0-.6.5-1.2 1.7-.5 1-.7 2.1.1 2.3.9.2 1.5-.6 1.6-1.3v-1.3zm.3 32.2c-.3-1.5-.5-2.6-1.8-3.1-1.6-.6-3.1-.7-4.4-.6-2.6-.3-3.4.6-3.4.6 7.6 1 9.7 3.8 9.6 3.1zm11.4-14.6c-.7-.5-3.2-1-5.3-.4-1.6.5-2.3 1.3-3 2.2-.3.4-.4 1.2-.4 1.5 0 .3.4-.3 1.8-1 2.6-1.4 6.5-2.1 6.9-2.1.2-.1.2-.1 0-.2zm25.9 21.4c-.1.2-.9.2-.8 1.5.1 1.6-.1 4.2-2.3 6.9 0 0 .1 1.2 1.6-.3 1.2-1.2 1.9-2.4 2.1-4 .3-2.1-.5-4.1-.6-4.1zm-33.2-36.9c.1.1.2.2.3.2-.1-.1-.2-.2-.3-.2zm22.3 47.4c-6.1-3.6-7.2-6.1-7.4-6.3-.3 3.7.2 5.8.8 6.9.8 1.6 0 3.2-.1 3.4-.3.7-3 3.5-6.5 5-3.2 2.8-3.3 5.7-3.3 5.7 2.1 1.1 5.1.4 5.1.4.3-.7.5-1.1.4-2.3-.7-1.2-3.6-.7-3-.9.6-.2 1.6-1.1 3.9 0 2.8-3.9 7.1-5.7 8.4-6.6 1.6-1.1 0-3.3 1.7-5.3zm-28.9-55.4s-.4-1.1-.2-2.3c-.5-.5-.9-.8-.9-.8-1.4 1.8-.7 3.4 0 4.6l1.1-1.5zm-15 33.9c-.8-.2-1.6-.5-3.4.3.8-.9 1.9-1.9 3.7-2-.5-1.6 2.4-4.7 3.2-7.7l.1-.1c.1 0 .1-.1.2-.1 1.6.7 4.3 4.9 5.9 6.7 0 0 2.3.1 3.6-5.1 0 0-2.9-1-5.9-4.1-2.3-2.4-3.8-2.1-4.7-1.8-.6.2-1.5 1.4-2.1 3-1.2 2.8-2.2 4.5-4 9.1-.7 1.7-1.6 2.5-.6 5.8 3 .2 4.8-2.3 4.8-2.3-.5-.6-.6-1.4-.8-1.7z"/><path class="st4" d="M331.9 394v-62.2c0-1.3-1.1-2.1-2.6-2.5-8.3-1.9-25.7-5.3-45.8-5.3-20.2 0-37.6 3.4-45.8 5.3-1.5.3-2.6 1.2-2.6 2.5V394c6.6 12.3 24.9 27.2 48.4 33.4 23.5-6.1 41.7-21 48.4-33.4z"/><linearGradient id="SVGID_4_" gradientUnits="userSpaceOnUse" x1="29.748" y1="375.892" x2="538.857" y2="375.892"><stop offset="0" stop-color="#a05a36"/><stop offset=".15" stop-color="#fabc4e"/><stop offset=".3" stop-color="#ffe495"/><stop offset=".45" stop-color="#fbc878"/><stop offset=".65" stop-color="#a05a36"/><stop offset=".8" stop-color="#fabf75"/><stop offset=".85" stop-color="#f7dc90"/><stop offset=".9" stop-color="#fabf75"/><stop offset="1" stop-color="#a05a36"/></linearGradient><path class="st5" d="M283.5 434.8c-26.5-6.4-48.1-23.6-55.5-39v-69.3c0-1.3 1.1-2.1 2.5-2.5 0 0 23.4-6.9 52.9-6.9s52.9 6.9 52.9 6.9c1.5.4 2.5 1.2 2.5 2.5v69.3c-7.2 15.4-28.8 32.5-55.3 39zm48.4-40.8v-62.2c0-1.3-1.1-2.1-2.6-2.5-8.3-1.9-25.7-5.3-45.8-5.3-20.2 0-37.6 3.4-45.8 5.3-1.5.3-2.6 1.2-2.6 2.5V394c6.6 12.3 24.9 27.2 48.4 33.4 23.5-6.1 41.7-21 48.4-33.4z"/><path class="st6" d="M235.1 394v-62.2c0-1.3 1.1-2.1 2.6-2.5 8.3-1.9 25.7-5.3 45.8-5.3 20.2 0 37.6 3.4 45.8 5.3.6.1 1.1.4 1.5.6-.4-.8-1.3-1.4-2.4-1.6-8.3-1.9-25.7-5.3-45.8-5.3-20.2 0-37.6 3.4-45.8 5.3-1.5.3-2.6 1.2-2.6 2.5V393c1.4 2.6 3.4 5.4 5.8 8.1-2-2.4-3.7-4.8-4.9-7.1zM337.9 324.6c.1.3.2.5.2.9v69.3c-7.4 15.5-29 32.6-55.5 39-20.3-4.9-37.6-16.1-48-28 10.3 12.3 28 23.9 48.9 29 26.5-6.4 48.1-23.6 55.5-39v-69.3c-.1-.9-.4-1.5-1.1-1.9z"/><path d="M283.5 424.8c-22.9-6.2-39.6-20.5-45.8-31.4v-60.7c0-.5.3-.8.6-.8 8.4-2 25.5-5.2 45.3-5.2 19.8 0 36.9 3.3 45.3 5.2.3.1.6.3.6.8v60.7c-6.4 11-23.2 25.2-46 31.4z"/><path class="st7" d="M329.3 332.7c0-.5-.3-.8-.6-.8-4.2-1-10.5-2.3-18.3-3.3l-72.8 63.6v1.3c3.3 5.8 9.5 12.5 17.9 18.4l73.7-65.6v-13.6z"/><path class="st8" d="M284.3 388.8c-.2-1.1.4-1.4 1.3-1.4s1.9.4 2.4.8l.1.5v.5c0 .3-.1.5-.5.5h-.3c-.2 0-.5 0-.7.1-.4 0-.7.1-1.1.1-.6 0-1.1-.2-1.2-1.1zm26-6.5c2.5 10.9-5.6 11.8-5.2 19 .2 2.5-4.4 1.6-7.8 8.2-1.7-.7-3.8.6-4.3.9-.6.2 2.6-.2 3.4.9.2.8-.3 1.8-.6 2.3 0 0-2.9.3-5.1-.1 0 0-.2-2.4 2.4-5.2 3.4-1 6.7-7.9 6.9-8.7.7-2 .9-4.8-1.9-6-3.5-2.4-6.2-3.2-8.2-10.3 0 0-1.1 1.5-.5 3.4-5-1.6-12.5-.9-14.7-4.6 2-1.4 2.6-2.9 2-5 0 0-.1-.1-.3.1 0 2.1-2.9 3.6-3.4 4-.7.6-2.6.2-4-.6-2.4-1.3-7.3-3.8-7.5-3.6-.2.1-.9 6.9.1 8.2-1.6.9-2.2 2.2-2.6 3.5 1.1-1.3 2.7-1.7 3.5-1.8.3.3.9 1.1 1.3 1.8 0 0-1.1 2.7-4 3.1-.5.4-2.3-3.4-2-5.3.6-3.3-.8-9.3-.8-10.2s.3-1.6.8-2.1c.9-1 2.6-1.4 3-1.6.4-.2 2.1-.5 2.5-.5.5-.1 4.3-.5 4.4-1.1.1-.3-.3-.6-1.3-.8 0 0 .2-1.5 1.1-3.8 1.1-3.1 2.6-2.7 5.8-6.5 1.1-1.2 6.8-8.4 2.1-12.5l-.3-.3.3.3c1.1 1.2.6 3.8.2 4.7-2 3.2-3.3 2.1-4 5.6-.1.5-.3.8-.7 1.1-.4.3-.9.5-1.3.5-.4-.1-.4-.4-.2-1.5.3-1.2-.3-1.2-.5-1.3-.3-.1-.7.5-.8.7-.1.2-.4 1.4-.6 1.8-.2.3-.8.8-1.5-.1-.4-.6-1.2-1.1-1.6-1.5-.4-.4-.7-.7-.2-2.3.4-1.5 2.3-5.3 2.5-6 .2-.6.1-.8 0-1.4-.1-.6-.3-1.2.5-2.9.4-.8.6-1.2 1.1-2.1l1.3-2.6c.4-.6 0-.6-.3-1.9 0-.4 0-.8.1-1.3.5-1.7.7-2.1.7-2.1s1.1.7 1.7 1.6c.6.9.9 1.7.9 1.7s.1 0 .3-.1c2.4-5.4 8.6-2.6 11-2 0 0-1.1.3-1.4.7-.3.4-.5.9-.2.8.3-.1 1.4-.3 2.6-.3 2.9.2 3.4 2.5 3.4 2.5-2.6-1.2-2.4.3-2.4.3 5.7 1.4 5.6 4.9 5.6 4.9-1-1.1-3-1.6-2.9-1 .1.5.6.8 2.4 2 2.5 1.8 1.9 4.1 1.9 4.1-.5-.9-2.1-.7-2.1-.7.1.5.3.8 1.7 2.1 2.9 2.7 1.1 6.1 1.1 6.1-.1-1.3-2.4-3.7-2.4-3.1 0 .7 0 1.7.9 3.2 1.6 2.6.6 5.1.6 5.1-1-1.3-1.7-1.7-1.7-1.7-.2 1.7 3 4.6 2.1 7.6-1-2.3-3.6-5.8-4.2-6.1.1-2 .5-4.8.5-7.5v-1.8c-.1-1-.1-1.8-.3-2.6 0-.3-.1-.5-.1-.8-.3-1.6-.7-3.3-1.6-5-.2-.4-.4-.8-.6-1.1-.9-1.5-2.1-3-3.7-4.2-2.4-1.8-5.9-3-6.9-1.9-.1.2-.1.1-.1.2.1 0 .2 0 .3.1 1.5.4 2.8.8 4 1.5 1.6 1 2.6 2.2 4 4 3.8 5 2.7 14.9 2.5 16.8-.2 1.1-.2 2.8.2 3.7.7 1.5 2 1.1 5.2 6.2.8 1.3 2.5 3.6 4 3.9 3.4.6 9.7 1.9 12.9 5.9 0 0 2.3.4 3.8-.9 1.1-1 1.6-2.4-.3-4.8-1.5-1.8-3.5-2.8-5.5-4.5-1.8-1.6-3-2.5-4.7-5.2-1.6-2.5-2.1-4.4-1.4-7.2 0 0 .4 1.7 1.8 2.2 0 0-2.3-4.5 1.4-8.2 0 0 .1 5 1.4 6.2 0 0-.1-2.4 1.5-3.1 0 0-1.4 3.1 1.6 8.4-2.7-1-4.1-4.2-4.1-4.2-.5 2 .8 5.3 5.6 7.7.7.4 2.3 1.5 3.2 2.3 1.1 1 2.3 2.4 2.7 4.4.1.6 0 1.3 0 2 0 0 .9-.4.8-2.6-.1-2.4-1.1-3.7-3.1-5.6-1.8-1.6-4.1-2.8-2.6-6.7 0 0 1.3 2.9 2.9 4.2 12 9.6 3.3 19.7-4 18zM267 354.6c-.2-.4-.8-.1-.9 0-.1.1-.2.5-.4 1-.2.6.3 1.2.7 1.2.2 0 .4-.5.5-.7.2-.3.2-1.2.1-1.5zm3.7-9.3c-.1-.5-.3-1.3-.5-1.4 0 0-.6.5-1.2 1.7-.5 1-.7 2.1.1 2.3.9.2 1.5-.6 1.6-1.3v-1.3zm.3 32.2c-.3-1.5-.5-2.6-1.8-3.1-1.5-.6-3.1-.7-4.4-.6-2.6-.3-3.4.6-3.4.6 7.6 1 9.7 3.8 9.6 3.1zm11.4-14.6c-.7-.5-3.2-1-5.3-.4-1.6.5-2.3 1.3-3 2.2-.3.4-.4 1.2-.4 1.5 0 .3.4-.3 1.8-1 2.6-1.4 6.5-2.1 6.9-2.1.2-.1.2-.1 0-.2zm25.9 21.4c-.1.2-.9.2-.8 1.5.1 1.6-.1 4.2-2.3 6.9 0 0 .1 1.2 1.6-.3 1.2-1.2 1.9-2.4 2.1-4 .3-2.1-.5-4.1-.6-4.1zm-33.2-36.9c.1.1.2.2.3.2-.1-.1-.2-.2-.3-.2zm22.3 47.4c-6.1-3.6-7.2-6.1-7.4-6.3-.3 3.7.2 5.8.8 6.9.9 1.6 0 3.2-.1 3.4-.3.7-3 3.5-6.5 5-3.3 2.8-3.3 5.7-3.3 5.7 2.1 1.1 5.1.4 5.1.4.3-.7.5-1.1.4-2.3-.7-1.2-3.6-.7-3-.9.6-.2 1.6-1.1 3.9 0 2.8-3.9 7.1-5.7 8.4-6.6 1.6-1.1 0-3.3 1.7-5.3zm-28.9-55.4s-.4-1.1-.2-2.3c-.5-.5-.9-.8-.9-.8-1.4 1.8-.7 3.4 0 4.6l1.1-1.5zm-15 33.9c-.8-.2-1.6-.5-3.4.3.8-.9 1.9-1.9 3.7-2-.5-1.6 2.4-4.7 3.1-7.7l.1-.1c.1 0 .1-.1.2-.1 1.6.7 4.3 4.9 5.9 6.7 0 0 2.3.1 3.5-5.1 0 0-2.9-1-5.9-4.1-2.4-2.4-3.8-2.1-4.7-1.8-.6.2-1.5 1.4-2.1 3-1.2 2.8-2.2 4.5-4 9.1-.7 1.7-1.6 2.5-.6 5.8 3 .2 4.8-2.3 4.8-2.3-.3-.6-.4-1.4-.6-1.7z"/><linearGradient id="SVGID_5_" gradientUnits="userSpaceOnUse" x1="29.752" y1="374.128" x2="538.853" y2="374.128"><stop offset="0" stop-color="#a05a36"/><stop offset=".15" stop-color="#fabc4e"/><stop offset=".3" stop-color="#ffe495"/><stop offset=".45" stop-color="#fbc878"/><stop offset=".65" stop-color="#a05a36"/><stop offset=".8" stop-color="#fabf75"/><stop offset=".85" stop-color="#f7dc90"/><stop offset=".9" stop-color="#fabf75"/><stop offset="1" stop-color="#a05a36"/></linearGradient><path class="st9" d="M284.3 388.8c-.2-1.1.4-1.4 1.3-1.4s1.9.4 2.4.8l.1.5v.5c0 .3-.1.5-.5.5h-.3c-.2 0-.5 0-.7.1-.4 0-.7.1-1.1.1-.6 0-1.1-.2-1.2-1.1zm26-6.5c2.5 10.9-5.6 11.8-5.2 19 .2 2.5-4.4 1.6-7.8 8.2-1.7-.7-3.8.6-4.3.9-.6.2 2.6-.2 3.4.9.2.8-.3 1.8-.6 2.3 0 0-2.9.3-5.1-.1 0 0-.2-2.4 2.4-5.2 3.4-1 6.7-7.9 6.9-8.7.7-2 .9-4.8-1.9-6-3.5-2.4-6.2-3.2-8.2-10.3 0 0-1.1 1.5-.5 3.4-5-1.6-12.5-.9-14.7-4.6 2-1.4 2.6-2.9 2-5 0 0-.1-.1-.3.1 0 2.1-2.9 3.6-3.4 4-.7.6-2.6.2-4-.6-2.4-1.3-7.3-3.8-7.5-3.6-.2.1-.9 6.9.1 8.2-1.6.9-2.2 2.2-2.6 3.5 1.1-1.3 2.7-1.7 3.5-1.8.3.3.9 1.1 1.3 1.8 0 0-1.1 2.7-4 3.1-.5.4-2.3-3.4-2-5.3.6-3.3-.8-9.3-.8-10.2s.3-1.6.8-2.1c.9-1 2.6-1.4 3-1.6.4-.2 2.1-.5 2.5-.5.5-.1 4.3-.5 4.4-1.1.1-.3-.3-.6-1.3-.8 0 0 .2-1.5 1.1-3.8 1.1-3.1 2.6-2.7 5.8-6.5 1.1-1.2 6.8-8.4 2.1-12.5l-.3-.3.3.3c1.1 1.2.6 3.8.2 4.7-2 3.2-3.3 2.1-4 5.6-.1.5-.3.8-.7 1.1-.4.3-.9.5-1.3.5-.4-.1-.4-.4-.2-1.5.3-1.2-.3-1.2-.5-1.3-.3-.1-.7.5-.8.7-.1.2-.4 1.4-.6 1.8-.2.3-.8.8-1.5-.1-.4-.6-1.2-1.1-1.6-1.5-.4-.4-.7-.7-.2-2.3.4-1.5 2.3-5.3 2.5-6 .2-.6.1-.8 0-1.4-.1-.6-.3-1.2.5-2.9.4-.8.6-1.2 1.1-2.1l1.3-2.6c.4-.6 0-.6-.3-1.9 0-.4 0-.8.1-1.3.5-1.7.7-2.1.7-2.1s1.1.7 1.7 1.6c.6.9.9 1.7.9 1.7s.1 0 .3-.1c2.4-5.4 8.6-2.6 11-2 0 0-1.1.3-1.4.7-.3.4-.5.9-.2.8.3-.1 1.4-.3 2.6-.3 2.9.2 3.4 2.5 3.4 2.5-2.6-1.2-2.4.3-2.4.3 5.7 1.4 5.6 4.9 5.6 4.9-1-1.1-3-1.6-2.9-1 .1.5.6.8 2.4 2 2.5 1.8 1.9 4.1 1.9 4.1-.5-.9-2.1-.7-2.1-.7.1.5.3.8 1.7 2.1 2.9 2.7 1.1 6.1 1.1 6.1-.1-1.3-2.4-3.7-2.4-3.1 0 .7 0 1.7.9 3.2 1.6 2.6.6 5.1.6 5.1-1-1.3-1.7-1.7-1.7-1.7-.2 1.7 3 4.6 2.1 7.6-1-2.3-3.6-5.8-4.2-6.1.1-2 .5-4.8.5-7.5v-1.8c-.1-1-.1-1.8-.3-2.6 0-.3-.1-.5-.1-.8-.3-1.6-.7-3.3-1.6-5-.2-.4-.4-.8-.6-1.1-.9-1.5-2.1-3-3.7-4.2-2.4-1.8-5.9-3-6.9-1.9-.1.2-.1.1-.1.2.1 0 .2 0 .3.1 1.5.4 2.8.8 4 1.5 1.6 1 2.6 2.2 4 4 3.8 5 2.7 14.9 2.5 16.8-.2 1.1-.2 2.8.2 3.7.7 1.5 2 1.1 5.2 6.2.8 1.3 2.5 3.6 4 3.9 3.4.6 9.7 1.9 12.9 5.9 0 0 2.3.4 3.8-.9 1.1-1 1.6-2.4-.3-4.8-1.5-1.8-3.5-2.8-5.5-4.5-1.8-1.6-3-2.5-4.7-5.2-1.6-2.5-2.1-4.4-1.4-7.2 0 0 .4 1.7 1.8 2.2 0 0-2.3-4.5 1.4-8.2 0 0 .1 5 1.4 6.2 0 0-.1-2.4 1.5-3.1 0 0-1.4 3.1 1.6 8.4-2.7-1-4.1-4.2-4.1-4.2-.5 2 .8 5.3 5.6 7.7.7.4 2.3 1.5 3.2 2.3 1.1 1 2.3 2.4 2.7 4.4.1.6 0 1.3 0 2 0 0 .9-.4.8-2.6-.1-2.4-1.1-3.7-3.1-5.6-1.8-1.6-4.1-2.8-2.6-6.7 0 0 1.3 2.9 2.9 4.2 12 9.6 3.3 19.7-4 18zM267 354.6c-.2-.4-.8-.1-.9 0-.1.1-.2.5-.4 1-.2.6.3 1.2.7 1.2.2 0 .4-.5.5-.7.2-.3.2-1.2.1-1.5zm3.7-9.3c-.1-.5-.3-1.3-.5-1.4 0 0-.6.5-1.2 1.7-.5 1-.7 2.1.1 2.3.9.2 1.5-.6 1.6-1.3v-1.3zm.3 32.2c-.3-1.5-.5-2.6-1.8-3.1-1.5-.6-3.1-.7-4.4-.6-2.6-.3-3.4.6-3.4.6 7.6 1 9.7 3.8 9.6 3.1zm11.4-14.6c-.7-.5-3.2-1-5.3-.4-1.6.5-2.3 1.3-3 2.2-.3.4-.4 1.2-.4 1.5 0 .3.4-.3 1.8-1 2.6-1.4 6.5-2.1 6.9-2.1.2-.1.2-.1 0-.2zm25.9 21.4c-.1.2-.9.2-.8 1.5.1 1.6-.1 4.2-2.3 6.9 0 0 .1 1.2 1.6-.3 1.2-1.2 1.9-2.4 2.1-4 .3-2.1-.5-4.1-.6-4.1zm-33.2-36.9c.1.1.2.2.3.2-.1-.1-.2-.2-.3-.2zm22.3 47.4c-6.1-3.6-7.2-6.1-7.4-6.3-.3 3.7.2 5.8.8 6.9.9 1.6 0 3.2-.1 3.4-.3.7-3 3.5-6.5 5-3.3 2.8-3.3 5.7-3.3 5.7 2.1 1.1 5.1.4 5.1.4.3-.7.5-1.1.4-2.3-.7-1.2-3.6-.7-3-.9.6-.2 1.6-1.1 3.9 0 2.8-3.9 7.1-5.7 8.4-6.6 1.6-1.1 0-3.3 1.7-5.3zm-28.9-55.4s-.4-1.1-.2-2.3c-.5-.5-.9-.8-.9-.8-1.4 1.8-.7 3.4 0 4.6l1.1-1.5zm-15 33.9c-.8-.2-1.6-.5-3.4.3.8-.9 1.9-1.9 3.7-2-.5-1.6 2.4-4.7 3.1-7.7l.1-.1c.1 0 .1-.1.2-.1 1.6.7 4.3 4.9 5.9 6.7 0 0 2.3.1 3.5-5.1 0 0-2.9-1-5.9-4.1-2.4-2.4-3.8-2.1-4.7-1.8-.6.2-1.5 1.4-2.1 3-1.2 2.8-2.2 4.5-4 9.1-.7 1.7-1.6 2.5-.6 5.8 3 .2 4.8-2.3 4.8-2.3-.3-.6-.4-1.4-.6-1.7z"/></g><g id="Logo"><path d="M446.4 238c.8-3.8.3-6.3-1.9-10-2.4-4.3-4.6-6.2-8.1-7.1l-1.5-.4 8.9-10.8.7.3c3.3 1.5 5.3 3.3 7.1 6.4 2.3 3.9 3 8.4 2.1 12.8-.7 4-2.3 6.3-5.6 9.7l-2.4 2.4.7-3.3zM63.9 314.4l.4-.3c3.2-2.2 4-4.1 4-16.3v-59.6c0-11.5-2.7-15.2-2.7-15.2v-3.3h24.6v3.1l-.6.3c-3.2 1.5-4 3.4-4 14.5v19.8l22.9-1.7v-19c0-10.8-2.7-14-2.7-14v-3h24.5v2.9l-.6.3c-3.2 1.4-4 3.1-4 13.4V290c0 11.1.6 12.3 3.5 13.1l.7.2v2.7l-.8.1c-.4.1-24.1 3.7-24.3 3.8l-1.1.2v-2.9l.5-.3c3.4-2.1 4.3-4.2 4.3-15v-23.8l-22.9 2.1v25.2c0 11.9.7 13.3 3.6 14l.8.2v2.8l-.8.1c-.4.1-24 4.6-24.1 4.6l-1.2.2v-2.9zM160 303.2c-5.3 0-9.8-1-13.2-2.9-2.9-1.7-5-3.8-6.2-6.4-2.6-5.3-3.1-9.1-3-25.6v-31c.1-11.5-2.2-14.4-2.2-14.4v-3h23.7v2.9l-.6.3c-2.9 1.2-3.7 3.1-3.7 13.9v30.3c-.1 10.2.1 13.6 1.1 17.5 1.4 4.9 3.8 7 8.3 7h1c4.8-.3 7.9-3.3 9.8-9.7 1.2-3.9 1.7-9.1 1.8-17.4V240c.1-14.2-2.4-16.9-2.4-16.9V220h22.7v3l-.9.1c-.8.1-.9.2-1.3.6-.4.3-.7.9-.9 1.4-1 3.2-1.2 4-1.2 14.6V264c-.1 12.6-1 19.6-3.4 25-3.5 7.4-12.4 12.7-24 14-1.9 0-3.7.2-5.4.2zM200.1 297.4v-1.6l.4-.3c1.3-.9 1.8-1.2 2.3-1.9 1.2-1.6 1.9-4.3 2-13.4v-42.4c0-8.3-.2-10.5-.7-12.4-.5-1.4-.4-5.7-.4-5.7h17.6v.9c0 .9.2 2.1.3 2.4v.2c.2.7.7 1.3 2.2 3.6l.8 1.1c7.4 10.4 20.9 29.3 25.8 36.1v-27.6c-.2-12.1-2.7-13.8-2.7-13.8v-2.9H265v2.8l-.7.2c-1.1.4-1.4.7-1.8 1.4-1.1 2-1.3 4.2-1.3 12.8v42c0 4.3 0 9.1.2 11.5.1 1.8.3 2.2.9 3.4l.7 1.4h-1.6c-4.9.1-10 .3-15.1.5l-1.9.1 1-1.6c1.2-1.9 1.3-2.4 1.3-3.3 0-1.2-.4-3.5-1.9-5.7-.7-1-1.5-2-2.2-3-7.8-10.4-22.1-29.9-27.1-36.7v34.2c.1 4.3.4 8.1 1.1 11.3.4 1.4 1 2.3 3.1 3.2l.6.3v2.6l-2.1.1c-1.9 0-14.2.9-16 1.1-.4 0-.8.1-1.1.1l-1.1.1v-1.1zM280.8 292.1l.7-.2c3.1-1.2 4-2.7 4-11.5v-49.2c-2.3.1-4.4.1-6.8.2-7.2.1-8.2 1.3-8.8 3.8l-.2.8H267v-2.1c.1-2.2.1-5.2.1-7.2 0-1.4-.1-5.8-.1-5.8v-1h55.1l-.1 1c-.1 2-.1 3.9-.1 5.9 0 1.6 0 5 .1 7v2.2h-2.8l-.2-.8c-.5-2.4-1.5-3.6-8.7-3.7-1.1 0-2.1-.1-3.1-.1-1.2 0-2.5-.1-3.8-.1v49.2c0 9 .8 10.3 4 11.5l.6.2v2.7H305.7c-1.4-.1-3.8-.1-7.7-.1h-3.4c-4.8 0-9.5.1-11.6.2H280.6v-2.9zM374.1 298.5c-1.2-.4-1.9-.5-3-.6l-.5-.1c-1.5-.2-3-.3-7.8-.6-12.5-.8-25.4-1.4-38.3-1.8h-1v-2.7l.7-.2c3.1-1.1 3.7-2.1 3.7-11.6v-46.6c0-9-1.8-11.7-1.8-11.7v-2.8h47.5l-.1 1.1s0 .5-.1.7v5.5c0 .9 0 2.1.1 3.3 0 1.1.1 2.2.1 3.2v.1c0 .4.1.8.1 1.2l.1 1.1H370.9l-.2-.8c-.5-2.5-2-3.5-9.4-3.6-4.6 0-13.1-.1-16-.1v17.6c2.9 0 11.3.2 15.8.3h2.3c1.4 0 1.9-.1 2.7-.2h.3c1.4-.2 1.7-.6 2-1.8l.2-.8H371.5l-.1 1.1v8.2c0 1.2 0 2.4.1 3.5 0 .9.1 1.8.1 2.6 0 .3 0 .5.1.8l.1 1.4H368.9l-.2-.7c-.2-.8-.4-1-.7-1.2-.4-.3-.9-.5-1.4-.6h-.1c-1-.3-1.5-.4-5.2-.5-4.6-.2-13-.5-15.9-.6v25.6c3.1.1 12.7.5 17.8.8 1.1 0 2 .1 2.8.1 5.4 0 6.2-1 6.5-3.2l.1-.9.9.1h.4c.3 0 .5 0 .7.1l1 .1-.1 1c0 .3-.1.6-.1.9V291c0 .9 0 1.9.1 2.9 0 1 .1 2 .1 3.1 0 .4.1.8.1 1.2l.2 1.5-1.8-1.2zM445.3 305.6c-.3 0-.6-.1-.8-.1-4.3-.6-8.7-1.3-13.7-1.9-3.9-.5-7.9-.9-11.7-1.3h-.1c-.4-.1-.7-.1-1.1-.1l-.9-.1v-2.8l.9-.1c1.1-.1 1.3-.5 1.3-1.3 0-.9-.4-2.7-2.4-6.2l-14.3-24.8c-.3 0-.9-.1-.9-.1v18c0 9.5 1 11.4 4.4 13.1l.5.3V301l-1.1-.1c-.2 0-.4 0-.6-.1-.2 0-.3 0-.5-.1-2.6-.4-6.5-.8-11.1-1.2-4.2-.4-8.5-.8-11.1-.8h-.6c-.2 0-.4 0-.6-.1l-.9-.1v-.9V295.7l.7-.2c2.9-.8 3.5-2 3.4-12v-48.7c0-9.6-2.2-12.3-2.2-12.3v-2.9h26.6c10.3 0 16.5 1.3 21.4 4.5 5.5 3.4 9.1 10.9 9.1 19.2.1 11.5-6.4 19.5-17.8 22.2l13.2 22.4c5.7 9.9 8.4 13.3 11.4 14.6l.6.3V305.6h-1.1zm-43.7-50c1.6.4 2.5.5 4.4.6h1.2c4.1 0 7.3-1.1 9.5-3.4 2.3-2.3 3.5-5.7 3.5-10.1 0-8.6-4.2-12.7-13.1-12.8h-.8c-1.8 0-2.8.1-4.6.4v25.3zM485.1 314.8c-1.8 0-3.6-.2-5.5-.5-2.9-.5-6-1.5-9.7-3.1l-.1-.1-.1-.1c-.2-.2-2.1-1.1-4.2-2.2-1.5-.7-2.9-1.2-4-1.4h-.5c-.6 0-1.1.2-1.5 1.1l-.3.7-.8-.1c-.2 0-.3-.1-.5-.1s-.3-.1-.5-.1l-.9-.2.2-2.3v-4.6-7.4c0-2.6 0-5.1-.1-7.3 0-1.8-.1-3.6-.1-5.1v-.6c0-.3 0-.5-.1-.8l-.1-1.2 1.2.1c.4 0 .7.1 1.1.1l.7.1.1.7c2.6 11.6 9.3 19.4 17.9 20.8.7.1 1.4.2 2.1.2 2.6 0 4.9-.9 6.5-2.5 2-2 3.1-5 3-8.8 0-2.8-.8-5.5-2.1-7.5-2-2.8-4.1-4.7-12.4-9.8-13.5-8.5-17.9-15-18-26.6-.1-16.4 10.8-28 26.4-28.1 3.9 0 7 .7 11.3 2.4 1.9.6 3.7 1.1 4.4 1.1.8 0 1.7-.2 3-1.9l1.8-2.2v3.8c-.1 3.2-.2 6.9-.2 10.9 0 5.1.1 9.5.2 13.1v2.4l-1.1-.1c-.3 0-.6 0-.9-.1h-.7l-.2-.7c-1-3.5-1.5-4.7-2.4-6.8-2.9-6.3-7.5-9.9-13.1-10h.1c-3 0-5.7 1-7.6 3-2.1 2.1-3.3 5.3-3.3 8.9 0 5.4 2.4 8.6 9.8 13.1 10.2 6.1 15.6 10.5 19.2 15.4 3.3 4.8 5.1 10.9 5.1 17.5 0 7.9-2.2 14.6-6.4 19.4-4.2 5-9.9 7.5-16.7 7.5z"/><g><path class="st4" d="M441.9 223.5c-2.6-4.5-4.9-6.6-8.7-7.6l7.4-9c3.2 1.4 5 3.1 6.7 6 2.1 3.7 2.8 7.9 2 12.1-.6 3.6-1.9 5.7-5.3 9.2.7-4 .2-6.8-2.1-10.7zM61.5 311c3.8-2.6 4.5-5.3 4.5-17.1v-59.6c0-11.5-.7-14-4.5-15.8v-1.7h24.4v1.5c-3.8 1.8-4.6 4.3-4.6 15.4v20.9l24.9-1.8v-19.9c0-10.6-.7-12.9-4.5-14.6v-1.4H126v1.3c-3.8 1.7-4.6 4-4.6 14.3V286c0 10.7.4 13 4.3 14v1.1c-.4.1-23.9 3.7-24.3 3.8v-1.2c3.8-2.3 4.8-4.8 4.8-15.8V263l-24.9 2.3v26.1c0 11.5.5 14 4.4 15v1.2c-.4.1-23.8 4.5-24.1 4.6-.1-.4-.1-.8-.1-1.2zM154.7 216.7v1.3c-3.5 1.5-4.3 3.9-4.3 14.8v30.3c-.1 10.5.1 13.7 1.1 17.8 1.6 5.7 4.5 8 10.3 7.7 5-.3 8.5-3.2 10.7-10.4 1.2-4 1.8-9.3 1.8-17.7v-24.7c.1-14.4-.6-17.3-4.4-17.8v-1.2h22.7v1.1c-1 .1-1.4.4-1.9.9s-1 1.2-1.2 1.9c-1.1 3.4-1.2 4.2-1.3 14.9V260c-.1 13-1.1 19.5-3.3 24.6-3.3 7.1-12.1 12.1-23.2 13.4-7.2.8-13.5 0-17.9-2.5-2.6-1.5-4.7-3.5-5.8-6-2.6-5.3-3-9.2-2.9-25.2v-31.1c.1-11.3-.5-13.4-4-15.1v-1.4h23.6zM200.2 290.2c1.5-1.9 2.1-5.2 2.2-14v-42.4c0-8.4-.2-10.6-.8-12.7-.6-1.7-1.8-2.7-3.6-3.2v-1.2h19s.1 2.1.4 2.8c.3 1 .8 1.7 3.1 4.9 9.1 12.8 27.6 38.7 27.6 38.7v-30.7c-.2-12-1.4-13.6-5-14.5v-1.1h17.7v1.1c-1.3.4-1.8.9-2.3 1.9-1.2 2.2-1.4 4.6-1.4 13.2v42c0 4.4 0 9.1.2 11.6.1 1.9.3 2.4 1 3.7-5 .1-10 .3-15.1.5 1.2-1.9 1.4-2.6 1.4-3.8 0-1.4-.5-2.5-2.1-4.8-.7-1-1.5-2-2.2-3-9.6-12.9-28.8-39.2-28.8-39.2v35.8c.1 5.9.8 9.6 1.2 11.5.5 1.9 1.4 2.9 3.7 3.8v1c-.4 0-.8 0-1.2.1-1.9 0-14.2.9-16.1 1.1-.4 0-.8.1-1.2.1v-1c1.1-.9 1.7-1.3 2.3-2.2zM303.7 289.7h-1.2c-1.9-.1-5.7-.1-11.2-.1-5.5 0-9.7.1-11.6.2h-1.3v-1c3.8-1.4 4.7-3.6 4.7-12.5V226c-2.7.1-5.1.1-7.9.2-6.9.1-8.9 1.1-9.7 4.6h-1v-1.1c.1-2.3.1-5.5.1-7.2 0-1.4-.1-5.8-.1-5.8h53.1c-.1 2.1-.1 4.1-.1 5.9 0 1.9 0 5.1.1 7.1v1.1h-1c-.6-3.4-2.8-4.4-9.7-4.5-2.8-.1-5.1-.2-7.9-.2v50.2c0 8.9.8 11 4.6 12.4.1.4.1.7.1 1zM321.1 289.4c3.8-1.3 4.4-3.3 4.3-12.6v-46.6c0-9-.8-11-4.5-12.4v-1.1H369s0 .5-.1.7c0 1.9-.1 3.8-.1 5.5 0 1.7.1 4.5.1 6.5 0 .4.1.8.1 1.3h-1.1c-.6-3.3-3-4.3-10.3-4.4-5.7 0-17-.1-17-.1v19.5l16.8.3c3.6.1 4 0 5.4-.2 1.8-.3 2.4-1 2.9-2.5h1.1c0 .4-.1.8-.1 1.1 0 1.9-.1 4.9-.1 7.1 0 2.2.1 4.2.1 6.1 0 .4.1.8.1 1.1h-1.1c-.2-.9-.5-1.4-1.1-1.8-.5-.4-1.1-.6-1.7-.7-1.2-.4-1.8-.4-5.4-.5-5.6-.2-16.9-.6-16.9-.6v27.6s12.6.5 18.8.8c7.7.3 9.8-.4 10.3-3.9.4 0 .7 0 1.1.1 0 .4-.1.8-.1 1.1 0 1.8-.1 3.6-.1 5.6 0 1.9.1 3.9.1 5.9 0 .4.1.8.1 1.3-1.5-.5-2.1-.5-3.6-.7-1.5-.2-3-.3-7.9-.6-12.8-.8-25.6-1.4-38.4-1.8.2-.4.2-.7.2-1.1zM377.7 292.6c3.7-1.1 4.2-3.2 4.2-12.9V231c0-9.4-.7-11.5-4.5-13v-1.2h28c9.9 0 16.1 1.2 20.9 4.3 5.2 3.2 8.6 10.5 8.7 18.3.1 11.5-6.5 19.2-18.4 21.6l13.9 23.6c5.7 9.9 8.5 13.5 11.9 15v1.1c-.3 0-.7-.1-1.1-.1-4.6-.7-9.1-1.3-13.7-1.9-3.9-.5-7.9-.9-11.8-1.3-.4 0-.7-.1-1.1-.1v-1.1c1.5-.2 2.1-.9 2.1-2.3 0-1.5-.9-3.7-2.5-6.7L399.7 262c-.8-.1-1.8-.3-2.5-.4v19.2c0 9.6 1.1 12.1 4.9 14v1.1c-.4 0-.7-.1-1.1-.1-2.5-.4-6.2-.7-11.1-1.2-5-.5-8.7-.8-11.2-.9-.4 0-.7-.1-1.1-.1.1-.3.1-.7.1-1zm19.5-40.2c2.1.6 3.1.7 5.4.8 9.7.5 15.3-4.9 15.2-14.4 0-9.1-4.6-13.6-14.1-13.7-2.8 0-3.8.1-6.5.6v26.7zM454.2 302.5c0-3.2.1-7.1.1-12.1 0-4.9-.1-9.1-.2-12.3 0-.5-.1-1-.1-1.4.4 0 .7.1 1.1.1 2.7 12.1 9.6 20.1 18.7 21.5 7.6 1.2 12.9-3.6 12.9-12.1 0-3-.9-5.9-2.2-8-2.1-3-4.4-5-12.7-10.1-13.1-8.3-17.4-14.4-17.5-25.8-.1-16 10.3-27 25.4-27.1 3.5 0 6.5.5 11 2.4 1.7.6 3.8 1.1 4.8 1.1 1.4 0 2.5-.7 3.8-2.2v1c-.1 2.4-.2 5.9-.2 10.9 0 6.1.1 10.3.2 13.2v1.3c-.3 0-.6 0-1-.1-1.1-3.6-1.6-4.9-2.4-6.9-3.1-6.7-8.2-10.4-14-10.6-7.2-.1-12.1 5.1-12.1 12.9 0 5.9 2.7 9.3 10.2 13.9 10.6 6.4 15.6 10.6 18.9 15.1 3.2 4.6 4.9 10.5 4.9 17 0 17.9-11.5 28.2-27.3 25.1-3.2-.6-6.3-1.7-9.5-3-.2-.2-1.7-.9-4.3-2.3-1.7-.8-3.2-1.3-4.3-1.5-1.5-.2-2.4.3-3.1 1.6-.3-.1-.6-.1-.9-.2-.2-.4-.2-.9-.2-1.4z"/><path class="st4" d="M441.9 223.5c-2.6-4.5-4.9-6.6-8.7-7.6l7.4-9c3.2 1.4 5 3.1 6.7 6 2.1 3.7 2.8 7.9 2 12.1-.6 3.6-1.9 5.7-5.3 9.2.7-4 .2-6.8-2.1-10.7zM61.5 311c3.8-2.6 4.5-5.3 4.5-17.1v-59.6c0-11.5-.7-14-4.5-15.8v-1.7h24.4v1.5c-3.8 1.8-4.6 4.3-4.6 15.4v20.9l24.9-1.8v-19.9c0-10.6-.7-12.9-4.5-14.6v-1.4H126v1.3c-3.8 1.7-4.6 4-4.6 14.3V286c0 10.7.4 13 4.3 14v1.1c-.4.1-23.9 3.7-24.3 3.8v-1.2c3.8-2.3 4.8-4.8 4.8-15.8V263l-24.9 2.3v26.1c0 11.5.5 14 4.4 15v1.2c-.4.1-23.8 4.5-24.1 4.6-.1-.4-.1-.8-.1-1.2zM154.7 216.7v1.3c-3.5 1.5-4.3 3.9-4.3 14.8v30.3c-.1 10.5.1 13.7 1.1 17.8 1.6 5.7 4.5 8 10.3 7.7 5-.3 8.5-3.2 10.7-10.4 1.2-4 1.8-9.3 1.8-17.7v-24.7c.1-14.4-.6-17.3-4.4-17.8v-1.2h22.7v1.1c-1 .1-1.4.4-1.9.9s-1 1.2-1.2 1.9c-1.1 3.4-1.2 4.2-1.3 14.9V260c-.1 13-1.1 19.5-3.3 24.6-3.3 7.1-12.1 12.1-23.2 13.4-7.2.8-13.5 0-17.9-2.5-2.6-1.5-4.7-3.5-5.8-6-2.6-5.3-3-9.2-2.9-25.2v-31.1c.1-11.3-.5-13.4-4-15.1v-1.4h23.6zM200.2 290.2c1.5-1.9 2.1-5.2 2.2-14v-42.4c0-8.4-.2-10.6-.8-12.7-.6-1.7-1.8-2.7-3.6-3.2v-1.2h19s.1 2.1.4 2.8c.3 1 .8 1.7 3.1 4.9 9.1 12.8 27.6 38.7 27.6 38.7v-30.7c-.2-12-1.4-13.6-5-14.5v-1.1h17.7v1.1c-1.3.4-1.8.9-2.3 1.9-1.2 2.2-1.4 4.6-1.4 13.2v42c0 4.4 0 9.1.2 11.6.1 1.9.3 2.4 1 3.7-5 .1-10 .3-15.1.5 1.2-1.9 1.4-2.6 1.4-3.8 0-1.4-.5-2.5-2.1-4.8-.7-1-1.5-2-2.2-3-9.6-12.9-28.8-39.2-28.8-39.2v35.8c.1 5.9.8 9.6 1.2 11.5.5 1.9 1.4 2.9 3.7 3.8v1c-.4 0-.8 0-1.2.1-1.9 0-14.2.9-16.1 1.1-.4 0-.8.1-1.2.1v-1c1.1-.9 1.7-1.3 2.3-2.2zM303.7 289.7h-1.2c-1.9-.1-5.7-.1-11.2-.1-5.5 0-9.7.1-11.6.2h-1.3v-1c3.8-1.4 4.7-3.6 4.7-12.5V226c-2.7.1-5.1.1-7.9.2-6.9.1-8.9 1.1-9.7 4.6h-1v-1.1c.1-2.3.1-5.5.1-7.2 0-1.4-.1-5.8-.1-5.8h53.1c-.1 2.1-.1 4.1-.1 5.9 0 1.9 0 5.1.1 7.1v1.1h-1c-.6-3.4-2.8-4.4-9.7-4.5-2.8-.1-5.1-.2-7.9-.2v50.2c0 8.9.8 11 4.6 12.4.1.4.1.7.1 1zM321.1 289.4c3.8-1.3 4.4-3.3 4.3-12.6v-46.6c0-9-.8-11-4.5-12.4v-1.1H369s0 .5-.1.7c0 1.9-.1 3.8-.1 5.5 0 1.7.1 4.5.1 6.5 0 .4.1.8.1 1.3h-1.1c-.6-3.3-3-4.3-10.3-4.4-5.7 0-17-.1-17-.1v19.5l16.8.3c3.6.1 4 0 5.4-.2 1.8-.3 2.4-1 2.9-2.5h1.1c0 .4-.1.8-.1 1.1 0 1.9-.1 4.9-.1 7.1 0 2.2.1 4.2.1 6.1 0 .4.1.8.1 1.1h-1.1c-.2-.9-.5-1.4-1.1-1.8-.5-.4-1.1-.6-1.7-.7-1.2-.4-1.8-.4-5.4-.5-5.6-.2-16.9-.6-16.9-.6v27.6s12.6.5 18.8.8c7.7.3 9.8-.4 10.3-3.9.4 0 .7 0 1.1.1 0 .4-.1.8-.1 1.1 0 1.8-.1 3.6-.1 5.6 0 1.9.1 3.9.1 5.9 0 .4.1.8.1 1.3-1.5-.5-2.1-.5-3.6-.7-1.5-.2-3-.3-7.9-.6-12.8-.8-25.6-1.4-38.4-1.8.2-.4.2-.7.2-1.1zM377.7 292.6c3.7-1.1 4.2-3.2 4.2-12.9V231c0-9.4-.7-11.5-4.5-13v-1.2h28c9.9 0 16.1 1.2 20.9 4.3 5.2 3.2 8.6 10.5 8.7 18.3.1 11.5-6.5 19.2-18.4 21.6l13.9 23.6c5.7 9.9 8.5 13.5 11.9 15v1.1c-.3 0-.7-.1-1.1-.1-4.6-.7-9.1-1.3-13.7-1.9-3.9-.5-7.9-.9-11.8-1.3-.4 0-.7-.1-1.1-.1v-1.1c1.5-.2 2.1-.9 2.1-2.3 0-1.5-.9-3.7-2.5-6.7L399.7 262c-.8-.1-1.8-.3-2.5-.4v19.2c0 9.6 1.1 12.1 4.9 14v1.1c-.4 0-.7-.1-1.1-.1-2.5-.4-6.2-.7-11.1-1.2-5-.5-8.7-.8-11.2-.9-.4 0-.7-.1-1.1-.1.1-.3.1-.7.1-1zm19.5-40.2c2.1.6 3.1.7 5.4.8 9.7.5 15.3-4.9 15.2-14.4 0-9.1-4.6-13.6-14.1-13.7-2.8 0-3.8.1-6.5.6v26.7zM454.2 302.5c0-3.2.1-7.1.1-12.1 0-4.9-.1-9.1-.2-12.3 0-.5-.1-1-.1-1.4.4 0 .7.1 1.1.1 2.7 12.1 9.6 20.1 18.7 21.5 7.6 1.2 12.9-3.6 12.9-12.1 0-3-.9-5.9-2.2-8-2.1-3-4.4-5-12.7-10.1-13.1-8.3-17.4-14.4-17.5-25.8-.1-16 10.3-27 25.4-27.1 3.5 0 6.5.5 11 2.4 1.7.6 3.8 1.1 4.8 1.1 1.4 0 2.5-.7 3.8-2.2v1c-.1 2.4-.2 5.9-.2 10.9 0 6.1.1 10.3.2 13.2v1.3c-.3 0-.6 0-1-.1-1.1-3.6-1.6-4.9-2.4-6.9-3.1-6.7-8.2-10.4-14-10.6-7.2-.1-12.1 5.1-12.1 12.9 0 5.9 2.7 9.3 10.2 13.9 10.6 6.4 15.6 10.6 18.9 15.1 3.2 4.6 4.9 10.5 4.9 17 0 17.9-11.5 28.2-27.3 25.1-3.2-.6-6.3-1.7-9.5-3-.2-.2-1.7-.9-4.3-2.3-1.7-.8-3.2-1.3-4.3-1.5-1.5-.2-2.4.3-3.1 1.6-.3-.1-.6-.1-.9-.2-.2-.4-.2-.9-.2-1.4z"/></g></g><g id="Payoff"><linearGradient id="SVGID_6_" gradientUnits="userSpaceOnUse" x1="-105.724" y1="188.881" x2="360.758" y2="188.881"><stop offset="0" stop-color="#a05a36"/><stop offset=".15" stop-color="#fabc4e"/><stop offset=".3" stop-color="#ffe495"/><stop offset=".45" stop-color="#fbc878"/><stop offset=".65" stop-color="#a05a36"/><stop offset=".8" stop-color="#fabf75"/><stop offset=".85" stop-color="#f7dc90"/><stop offset=".9" stop-color="#fabf75"/><stop offset="1" stop-color="#a05a36"/></linearGradient><path class="st10" d="M187.5 180.9h6.7v2.1h-4.5v4.8h3.9v2.1h-3.9v6.7h-2.2v-15.7z"/><linearGradient id="SVGID_7_" gradientUnits="userSpaceOnUse" x1="-105.724" y1="188.881" x2="360.758" y2="188.881"><stop offset="0" stop-color="#a05a36"/><stop offset=".15" stop-color="#fabc4e"/><stop offset=".3" stop-color="#ffe495"/><stop offset=".45" stop-color="#fbc878"/><stop offset=".65" stop-color="#a05a36"/><stop offset=".8" stop-color="#fabf75"/><stop offset=".85" stop-color="#f7dc90"/><stop offset=".9" stop-color="#fabf75"/><stop offset="1" stop-color="#a05a36"/></linearGradient><path class="st11" d="M202.4 180.9h2.2v15.7h-2.2v-15.7z"/><linearGradient id="SVGID_8_" gradientUnits="userSpaceOnUse" x1="-105.724" y1="188.881" x2="360.758" y2="188.881"><stop offset="0" stop-color="#a05a36"/><stop offset=".15" stop-color="#fabc4e"/><stop offset=".3" stop-color="#ffe495"/><stop offset=".45" stop-color="#fbc878"/><stop offset=".65" stop-color="#a05a36"/><stop offset=".8" stop-color="#fabf75"/><stop offset=".85" stop-color="#f7dc90"/><stop offset=".9" stop-color="#fabf75"/><stop offset="1" stop-color="#a05a36"/></linearGradient><path class="st12" d="M213.3 180.9h2.2l3.4 9.5v-9.5h2.2v15.7H219l-3.4-9.4v9.4h-2.2v-15.7z"/><linearGradient id="SVGID_9_" gradientUnits="userSpaceOnUse" x1="-105.724" y1="188.881" x2="360.758" y2="188.881"><stop offset="0" stop-color="#a05a36"/><stop offset=".15" stop-color="#fabc4e"/><stop offset=".3" stop-color="#ffe495"/><stop offset=".45" stop-color="#fbc878"/><stop offset=".65" stop-color="#a05a36"/><stop offset=".8" stop-color="#fabf75"/><stop offset=".85" stop-color="#f7dc90"/><stop offset=".9" stop-color="#fabf75"/><stop offset="1" stop-color="#a05a36"/></linearGradient><path class="st13" d="M229.8 180.9h6.7v2.1H232v4.6h3.9v2.1H232v4.6h4.5v2.2h-6.7v-15.6z"/><linearGradient id="SVGID_10_" gradientUnits="userSpaceOnUse" x1="-105.724" y1="188.881" x2="360.758" y2="188.881"><stop offset="0" stop-color="#a05a36"/><stop offset=".15" stop-color="#fabc4e"/><stop offset=".3" stop-color="#ffe495"/><stop offset=".45" stop-color="#fbc878"/><stop offset=".65" stop-color="#a05a36"/><stop offset=".8" stop-color="#fabf75"/><stop offset=".85" stop-color="#f7dc90"/><stop offset=".9" stop-color="#fabf75"/><stop offset="1" stop-color="#a05a36"/></linearGradient><path class="st14" d="M251.9 185.4h-2.2v-.5c0-1-.4-1.9-1.6-1.9-1.2 0-1.5 1-1.5 2 0 1.2.1 1.6 1.3 2.1l1.7.7c2 .7 2.4 2 2.4 4.3 0 2.6-1 4.6-3.9 4.6-2.2 0-3.8-1.6-3.8-3.7v-.8h2.2v.7c0 .8.4 1.6 1.6 1.6 1.5 0 1.6-.9 1.6-2.3 0-1.7-.2-1.9-1.3-2.4l-1.6-.7c-1.9-.8-2.4-2.1-2.4-4 0-2.4 1.3-4.3 3.9-4.3 2.2 0 3.7 1.8 3.7 3.5v1.1z"/><linearGradient id="SVGID_11_" gradientUnits="userSpaceOnUse" x1="-105.724" y1="188.881" x2="360.758" y2="188.881"><stop offset="0" stop-color="#a05a36"/><stop offset=".15" stop-color="#fabc4e"/><stop offset=".3" stop-color="#ffe495"/><stop offset=".45" stop-color="#fbc878"/><stop offset=".65" stop-color="#a05a36"/><stop offset=".8" stop-color="#fabf75"/><stop offset=".85" stop-color="#f7dc90"/><stop offset=".9" stop-color="#fabf75"/><stop offset="1" stop-color="#a05a36"/></linearGradient><path class="st15" d="M261.6 183H259v-2.1h7.5v2.1h-2.6v13.6h-2.2V183z"/><linearGradient id="SVGID_12_" gradientUnits="userSpaceOnUse" x1="-105.724" y1="188.881" x2="360.758" y2="188.881"><stop offset="0" stop-color="#a05a36"/><stop offset=".15" stop-color="#fabc4e"/><stop offset=".3" stop-color="#ffe495"/><stop offset=".45" stop-color="#fbc878"/><stop offset=".65" stop-color="#a05a36"/><stop offset=".8" stop-color="#fabf75"/><stop offset=".85" stop-color="#f7dc90"/><stop offset=".9" stop-color="#fabf75"/><stop offset="1" stop-color="#a05a36"/></linearGradient><path class="st16" d="M284.7 184.6c0-2.6 1.9-3.8 3.8-3.8s3.8 1.3 3.8 3.8v8.3c0 .6-.1 1.1-.3 1.6l1.4 1.1-1.1 1.4-1.3-1.1c-.7.6-1.5.8-2.4.8-1.8 0-3.8-1.3-3.8-3.8v-8.3zm2.2 8.3c0 1.1.7 1.6 1.5 1.6.2 0 .3 0 .5-.1l-1-.8 1.1-1.4.9.7v-8.3c0-1.1-.7-1.6-1.5-1.6s-1.5.5-1.5 1.6v8.3z"/><linearGradient id="SVGID_13_" gradientUnits="userSpaceOnUse" x1="-105.724" y1="188.881" x2="360.758" y2="188.881"><stop offset="0" stop-color="#a05a36"/><stop offset=".15" stop-color="#fabc4e"/><stop offset=".3" stop-color="#ffe495"/><stop offset=".45" stop-color="#fbc878"/><stop offset=".65" stop-color="#a05a36"/><stop offset=".8" stop-color="#fabf75"/><stop offset=".85" stop-color="#f7dc90"/><stop offset=".9" stop-color="#fabf75"/><stop offset="1" stop-color="#a05a36"/></linearGradient><path class="st17" d="M308.1 193.1c0 2.1-1.6 3.7-3.6 3.7s-3.6-1.6-3.6-3.7v-12.2h2.2v12c0 1.1.6 1.6 1.4 1.6.8 0 1.4-.5 1.4-1.6v-12h2.3v12.2z"/><linearGradient id="SVGID_14_" gradientUnits="userSpaceOnUse" x1="-105.724" y1="188.881" x2="360.758" y2="188.881"><stop offset="0" stop-color="#a05a36"/><stop offset=".15" stop-color="#fabc4e"/><stop offset=".3" stop-color="#ffe495"/><stop offset=".45" stop-color="#fbc878"/><stop offset=".65" stop-color="#a05a36"/><stop offset=".8" stop-color="#fabf75"/><stop offset=".85" stop-color="#f7dc90"/><stop offset=".9" stop-color="#fabf75"/><stop offset="1" stop-color="#a05a36"/></linearGradient><path class="st18" d="M319 180.9h1.9l3.5 15.7h-2.2l-.7-3.4h-3.1l-.7 3.4h-2.2l3.5-15.7zm1 4.5l-1.1 5.7h2.2l-1.1-5.7z"/><linearGradient id="SVGID_15_" gradientUnits="userSpaceOnUse" x1="-105.724" y1="188.881" x2="360.758" y2="188.881"><stop offset="0" stop-color="#a05a36"/><stop offset=".15" stop-color="#fabc4e"/><stop offset=".3" stop-color="#ffe495"/><stop offset=".45" stop-color="#fbc878"/><stop offset=".65" stop-color="#a05a36"/><stop offset=".8" stop-color="#fabf75"/><stop offset=".85" stop-color="#f7dc90"/><stop offset=".9" stop-color="#fabf75"/><stop offset="1" stop-color="#a05a36"/></linearGradient><path class="st19" d="M332.1 180.9h2.2v13.4h4.5v2.2h-6.7v-15.6z"/><linearGradient id="SVGID_16_" gradientUnits="userSpaceOnUse" x1="-105.724" y1="188.881" x2="360.758" y2="188.881"><stop offset="0" stop-color="#a05a36"/><stop offset=".15" stop-color="#fabc4e"/><stop offset=".3" stop-color="#ffe495"/><stop offset=".45" stop-color="#fbc878"/><stop offset=".65" stop-color="#a05a36"/><stop offset=".8" stop-color="#fabf75"/><stop offset=".85" stop-color="#f7dc90"/><stop offset=".9" stop-color="#fabf75"/><stop offset="1" stop-color="#a05a36"/></linearGradient><path class="st20" d="M347 180.9h2.2v15.7H347v-15.7z"/><linearGradient id="SVGID_17_" gradientUnits="userSpaceOnUse" x1="-105.724" y1="188.881" x2="360.758" y2="188.881"><stop offset="0" stop-color="#a05a36"/><stop offset=".15" stop-color="#fabc4e"/><stop offset=".3" stop-color="#ffe495"/><stop offset=".45" stop-color="#fbc878"/><stop offset=".65" stop-color="#a05a36"/><stop offset=".8" stop-color="#fabf75"/><stop offset=".85" stop-color="#f7dc90"/><stop offset=".9" stop-color="#fabf75"/><stop offset="1" stop-color="#a05a36"/></linearGradient><path class="st21" d="M359.5 183h-2.6v-2.1h7.5v2.1h-2.6v13.6h-2.2V183z"/><linearGradient id="SVGID_18_" gradientUnits="userSpaceOnUse" x1="-105.724" y1="188.881" x2="360.758" y2="188.881"><stop offset="0" stop-color="#a05a36"/><stop offset=".15" stop-color="#fabc4e"/><stop offset=".3" stop-color="#ffe495"/><stop offset=".45" stop-color="#fbc878"/><stop offset=".65" stop-color="#a05a36"/><stop offset=".8" stop-color="#fabf75"/><stop offset=".85" stop-color="#f7dc90"/><stop offset=".9" stop-color="#fabf75"/><stop offset="1" stop-color="#a05a36"/></linearGradient><path class="st22" d="M374 190l-3.1-9.1h2.4l1.8 6.2 1.8-6.2h2.4l-3.1 9.1v6.6H374V190z"/></g></svg>